# xmcd
#
# Track frame offsets:
#	150
#	11375
#	21200
#	31362
#	41887
#	52400
#	67600
#	90075
#	98562
#	109337
#	119437
#	131975
#	144150
#	155437
#	170662
#	180100
#	191675
#	202412
#
# Disc length: 2820 seconds
#
# Revision: 1
# Processed by: cddbd v1.4b42PL0 Copyright (c) Steve Scherf et al.
# Submitted via: audiograbber 1.80
#
DISCID=f40b0212
DTITLE=Little Richard - Little Richard Tutti Frutti
DYEAR=1900
DGENRE=
TTITLE0=Tutti frutti
TTITLE1=Good Golly Miss Molly
TTITLE2=Short Fat Fannie
TTITLE3=Money Honey
TTITLE4=Lucille
TTITLE5=Goin' Home (Tomorrow)
TTITLE6=Chains Of Love
TTITLE7=Blueberry Hill
TTITLE8=Hound Dog
TTITLE9=She's Got It
TTITLE10=Dock Of The Bay
TTITLE11=Cherry Red
TTITLE12=Only You
TTITLE13=Without Love
TTITLE14=Goodnight Irene
TTITLE15=Baby Face
TTITLE16=Groovy Little Suzy
TTITLE17=Long Tall Sally
EXTD=
EXTT0=
EXTT1=
EXTT2=
EXTT3=
EXTT4=
EXTT5=
EXTT6=
EXTT7=
EXTT8=
EXTT9=
EXTT10=
EXTT11=
EXTT12=
EXTT13=
EXTT14=
EXTT15=
EXTT16=
EXTT17=
PLAYORDER=
